<svg xmlns="http://www.w3.org/2000/svg" viewBox="0 0 64 64" id="educational-platform">
  <path fill="#f4b2b0" d="M54.91,15.43A11.321,11.321,0,0,0,55,14,12.005,12.005,0,0,0,32.06,9.05a9.99,9.99,0,0,0-15.99,6.82A9.87,9.87,0,0,0,12,15a10,10,0,0,0,0,20H52a10,10,0,0,0,2.91-19.57ZM38,29l-.5.336a9.908,9.908,0,0,1-10.992,0L26,29V24l-3-1.5V27H21V21.5L20,21l12-6,12,6-6,3Z"></path>
  <path fill="#b3404a" d="M55.978,14.741C55.992,14.5,56,14.247,56,14A13,13,0,0,0,31.687,7.583,10.861,10.861,0,0,0,26,6a10.98,10.98,0,0,0-10.709,8.5A10.882,10.882,0,0,0,12,14a11,11,0,0,0,0,22h7v6.586l-3.529,3.529a6.019,6.019,0,1,0,1.414,1.414l3.822-3.822A1,1,0,0,0,21,43V36H31V51.09a6,6,0,1,0,2,0V36H43v7a1,1,0,0,0,.293.707l3.822,3.822a6.019,6.019,0,1,0,1.414-1.414L45,42.586V36h7a11,11,0,0,0,3.978-21.259ZM12,55a4,4,0,1,1,4-4A4,4,0,0,1,12,55Zm24,2a4,4,0,1,1-4-4A4,4,0,0,1,36,57ZM52,47a4,4,0,1,1-4,4A4,4,0,0,1,52,47Zm0-13H12a9,9,0,0,1,0-18,8.824,8.824,0,0,1,3.659.782,1,1,0,0,0,1.4-.8A8.98,8.98,0,0,1,26,8a8.865,8.865,0,0,1,5.45,1.843,1,1,0,0,0,1.52-.38A11.006,11.006,0,0,1,54,14a10.311,10.311,0,0,1-.082,1.3,1,1,0,0,0,.7,1.082A9,9,0,0,1,52,34Z"></path>
  <path fill="#b3404a" d="M44.447,20.105l-12-6a1,1,0,0,0-.894,0l-12,6a1,1,0,0,0,0,1.79L21,22.618V27h2V23.618l2,1V29a1,1,0,0,0,.445.832l.5.336a10.909,10.909,0,0,0,12.1,0l.5-.336A1,1,0,0,0,39,29V24.618L44.447,21.9a1,1,0,0,0,0-1.79ZM37,28.465l-.059.039a9.051,9.051,0,0,1-9.882,0L27,28.465V25.618L31.553,27.9a1,1,0,0,0,.894,0L37,25.618Zm-5-2.583L22.236,21,32,16.118,41.764,21Z"></path>
</svg>
